<mxfile host="app.diagrams.net" agent="Mozilla/5.0 (Windows NT 10.0; Win64; x64; Chromium GOST) AppleWebKit/537.36 (KHTML, like Gecko) Chrome/127.0.0.0 Safari/537.36" version="27.0.3">
  <diagram name="Страница — 1" id="--ds0BabJp8_tFtK1dA2">
    <mxGraphModel dx="1895" dy="958" grid="1" gridSize="10" guides="1" tooltips="1" connect="1" arrows="1" fold="1" page="0" pageScale="1" pageWidth="827" pageHeight="1169" math="0" shadow="0">
      <root>
        <mxCell id="0" />
        <mxCell id="1" parent="0" />
        <mxCell id="l3O_IUPoLd6Lzl4tDlNp-1" value="" style="ellipse;whiteSpace=wrap;html=1;aspect=fixed;" vertex="1" parent="1">
          <mxGeometry x="40" y="200" width="80" height="80" as="geometry" />
        </mxCell>
        <mxCell id="l3O_IUPoLd6Lzl4tDlNp-2" value="&lt;div&gt;&lt;span style=&quot;background-color: transparent; color: light-dark(rgb(0, 0, 0), rgb(255, 255, 255));&quot;&gt;&lt;b&gt;Точки входа&lt;/b&gt;&lt;/span&gt;&lt;br&gt;&lt;/div&gt;" style="rhombus;whiteSpace=wrap;html=1;" vertex="1" parent="1">
          <mxGeometry x="160" y="195" width="90" height="90" as="geometry" />
        </mxCell>
        <mxCell id="l3O_IUPoLd6Lzl4tDlNp-3" value="&lt;b&gt;Отделение БАНКА&lt;/b&gt;" style="rounded=0;whiteSpace=wrap;html=1;" vertex="1" parent="1">
          <mxGeometry x="300" y="110" width="120" height="60" as="geometry" />
        </mxCell>
        <mxCell id="l3O_IUPoLd6Lzl4tDlNp-4" value="&lt;b&gt;Web-сайт&lt;/b&gt;" style="rounded=0;whiteSpace=wrap;html=1;" vertex="1" parent="1">
          <mxGeometry x="300" y="210" width="120" height="60" as="geometry" />
        </mxCell>
        <mxCell id="l3O_IUPoLd6Lzl4tDlNp-5" value="&lt;b&gt;Мобильное приложение&lt;/b&gt;" style="rounded=0;whiteSpace=wrap;html=1;" vertex="1" parent="1">
          <mxGeometry x="300" y="300" width="120" height="60" as="geometry" />
        </mxCell>
        <mxCell id="l3O_IUPoLd6Lzl4tDlNp-6" value="" style="endArrow=classic;html=1;rounded=0;exitX=-0.004;exitY=0.666;exitDx=0;exitDy=0;exitPerimeter=0;entryX=0.895;entryY=0.607;entryDx=0;entryDy=0;entryPerimeter=0;fillColor=#f8cecc;strokeColor=#b85450;" edge="1" parent="1" source="l3O_IUPoLd6Lzl4tDlNp-4" target="l3O_IUPoLd6Lzl4tDlNp-2">
          <mxGeometry width="50" height="50" relative="1" as="geometry">
            <mxPoint x="390" y="270" as="sourcePoint" />
            <mxPoint x="440" y="220" as="targetPoint" />
          </mxGeometry>
        </mxCell>
        <mxCell id="l3O_IUPoLd6Lzl4tDlNp-7" value="" style="endArrow=classic;html=1;rounded=0;exitX=0.885;exitY=0.388;exitDx=0;exitDy=0;exitPerimeter=0;entryX=-0.003;entryY=0.334;entryDx=0;entryDy=0;entryPerimeter=0;" edge="1" parent="1" source="l3O_IUPoLd6Lzl4tDlNp-2" target="l3O_IUPoLd6Lzl4tDlNp-4">
          <mxGeometry width="50" height="50" relative="1" as="geometry">
            <mxPoint x="330" y="280" as="sourcePoint" />
            <mxPoint x="300" y="230" as="targetPoint" />
          </mxGeometry>
        </mxCell>
        <mxCell id="l3O_IUPoLd6Lzl4tDlNp-8" value="" style="endArrow=classic;html=1;rounded=0;exitX=0.335;exitY=0.167;exitDx=0;exitDy=0;exitPerimeter=0;entryX=0;entryY=0.167;entryDx=0;entryDy=0;entryPerimeter=0;" edge="1" parent="1" source="l3O_IUPoLd6Lzl4tDlNp-2" target="l3O_IUPoLd6Lzl4tDlNp-3">
          <mxGeometry width="50" height="50" relative="1" as="geometry">
            <mxPoint x="120" y="120" as="sourcePoint" />
            <mxPoint x="170" y="70" as="targetPoint" />
            <Array as="points">
              <mxPoint x="190" y="120" />
            </Array>
          </mxGeometry>
        </mxCell>
        <mxCell id="l3O_IUPoLd6Lzl4tDlNp-9" value="" style="endArrow=classic;html=1;rounded=0;exitX=0;exitY=0.5;exitDx=0;exitDy=0;entryX=0.662;entryY=0.164;entryDx=0;entryDy=0;entryPerimeter=0;fillColor=#f8cecc;strokeColor=#b85450;" edge="1" parent="1" source="l3O_IUPoLd6Lzl4tDlNp-3" target="l3O_IUPoLd6Lzl4tDlNp-2">
          <mxGeometry width="50" height="50" relative="1" as="geometry">
            <mxPoint x="250" y="150" as="sourcePoint" />
            <mxPoint x="300" y="100" as="targetPoint" />
            <Array as="points">
              <mxPoint x="220" y="140" />
            </Array>
          </mxGeometry>
        </mxCell>
        <mxCell id="l3O_IUPoLd6Lzl4tDlNp-10" value="" style="endArrow=classic;html=1;rounded=0;exitX=0.332;exitY=0.832;exitDx=0;exitDy=0;exitPerimeter=0;entryX=0;entryY=0.667;entryDx=0;entryDy=0;entryPerimeter=0;" edge="1" parent="1" source="l3O_IUPoLd6Lzl4tDlNp-2" target="l3O_IUPoLd6Lzl4tDlNp-5">
          <mxGeometry width="50" height="50" relative="1" as="geometry">
            <mxPoint x="190" y="310" as="sourcePoint" />
            <mxPoint x="210" y="330.3678385416667" as="targetPoint" />
            <Array as="points">
              <mxPoint x="190" y="340" />
            </Array>
          </mxGeometry>
        </mxCell>
        <mxCell id="l3O_IUPoLd6Lzl4tDlNp-11" value="" style="endArrow=classic;html=1;rounded=0;exitX=0.001;exitY=0.331;exitDx=0;exitDy=0;exitPerimeter=0;entryX=0.658;entryY=0.842;entryDx=0;entryDy=0;entryPerimeter=0;fillColor=#f8cecc;strokeColor=#b85450;" edge="1" parent="1" source="l3O_IUPoLd6Lzl4tDlNp-5" target="l3O_IUPoLd6Lzl4tDlNp-2">
          <mxGeometry width="50" height="50" relative="1" as="geometry">
            <mxPoint x="160" y="320" as="sourcePoint" />
            <mxPoint x="210" y="270" as="targetPoint" />
            <Array as="points">
              <mxPoint x="220" y="320" />
            </Array>
          </mxGeometry>
        </mxCell>
        <mxCell id="l3O_IUPoLd6Lzl4tDlNp-12" value="" style="endArrow=classic;html=1;rounded=0;exitX=1;exitY=0.5;exitDx=0;exitDy=0;entryX=0;entryY=0.5;entryDx=0;entryDy=0;" edge="1" parent="1" source="l3O_IUPoLd6Lzl4tDlNp-1" target="l3O_IUPoLd6Lzl4tDlNp-2">
          <mxGeometry width="50" height="50" relative="1" as="geometry">
            <mxPoint x="160" y="270" as="sourcePoint" />
            <mxPoint x="210" y="220" as="targetPoint" />
          </mxGeometry>
        </mxCell>
        <mxCell id="l3O_IUPoLd6Lzl4tDlNp-13" value="" style="endArrow=classic;html=1;rounded=0;exitX=0.222;exitY=0.723;exitDx=0;exitDy=0;exitPerimeter=0;entryX=0.976;entryY=0.374;entryDx=0;entryDy=0;entryPerimeter=0;fillColor=#f8cecc;strokeColor=#b85450;" edge="1" parent="1" source="l3O_IUPoLd6Lzl4tDlNp-2">
          <mxGeometry width="50" height="50" relative="1" as="geometry">
            <mxPoint x="165.64000000000001" y="260.18" as="sourcePoint" />
            <mxPoint x="114.35999999999999" y="260" as="targetPoint" />
          </mxGeometry>
        </mxCell>
        <mxCell id="l3O_IUPoLd6Lzl4tDlNp-14" value="" style="endArrow=none;html=1;rounded=0;exitX=1;exitY=0.5;exitDx=0;exitDy=0;" edge="1" parent="1" source="l3O_IUPoLd6Lzl4tDlNp-4">
          <mxGeometry width="50" height="50" relative="1" as="geometry">
            <mxPoint x="390" y="270" as="sourcePoint" />
            <mxPoint x="460" y="240" as="targetPoint" />
          </mxGeometry>
        </mxCell>
        <mxCell id="l3O_IUPoLd6Lzl4tDlNp-15" value="&lt;div&gt;&lt;b&gt;&lt;br&gt;&lt;/b&gt;&lt;/div&gt;&lt;div&gt;&lt;b&gt;&lt;br&gt;&lt;/b&gt;&lt;/div&gt;&lt;b&gt;1&lt;/b&gt;" style="shape=note;whiteSpace=wrap;html=1;backgroundOutline=1;darkOpacity=0.05;" vertex="1" parent="1">
          <mxGeometry x="120" y="120" width="40" height="60" as="geometry" />
        </mxCell>
        <mxCell id="l3O_IUPoLd6Lzl4tDlNp-16" value="&lt;div&gt;&lt;b&gt;&lt;br&gt;&lt;/b&gt;&lt;/div&gt;&lt;div&gt;&lt;b&gt;&lt;br&gt;&lt;/b&gt;&lt;/div&gt;&lt;div&gt;&lt;b&gt;2&lt;/b&gt;&lt;/div&gt;" style="shape=note;whiteSpace=wrap;html=1;backgroundOutline=1;darkOpacity=0.05;" vertex="1" parent="1">
          <mxGeometry x="470" y="120" width="40" height="60" as="geometry" />
        </mxCell>
        <mxCell id="l3O_IUPoLd6Lzl4tDlNp-17" value="" style="endArrow=classic;html=1;rounded=0;exitX=0.5;exitY=1;exitDx=0;exitDy=0;exitPerimeter=0;dashed=1;dashPattern=8 8;" edge="1" parent="1" source="l3O_IUPoLd6Lzl4tDlNp-15">
          <mxGeometry width="50" height="50" relative="1" as="geometry">
            <mxPoint x="320" y="290" as="sourcePoint" />
            <mxPoint x="140" y="240" as="targetPoint" />
          </mxGeometry>
        </mxCell>
        <mxCell id="l3O_IUPoLd6Lzl4tDlNp-18" value="" style="endArrow=classic;html=1;rounded=0;exitX=0.5;exitY=1;exitDx=0;exitDy=0;exitPerimeter=0;dashed=1;dashPattern=8 8;" edge="1" parent="1" source="l3O_IUPoLd6Lzl4tDlNp-16">
          <mxGeometry width="50" height="50" relative="1" as="geometry">
            <mxPoint x="320" y="290" as="sourcePoint" />
            <mxPoint x="490" y="230" as="targetPoint" />
            <Array as="points">
              <mxPoint x="490" y="200" />
            </Array>
          </mxGeometry>
        </mxCell>
        <mxCell id="l3O_IUPoLd6Lzl4tDlNp-19" value="" style="endArrow=none;html=1;rounded=0;exitX=1;exitY=0.5;exitDx=0;exitDy=0;" edge="1" parent="1" source="l3O_IUPoLd6Lzl4tDlNp-3">
          <mxGeometry width="50" height="50" relative="1" as="geometry">
            <mxPoint x="320" y="290" as="sourcePoint" />
            <mxPoint x="460" y="140" as="targetPoint" />
          </mxGeometry>
        </mxCell>
        <mxCell id="l3O_IUPoLd6Lzl4tDlNp-20" value="" style="endArrow=none;html=1;rounded=0;" edge="1" parent="1">
          <mxGeometry width="50" height="50" relative="1" as="geometry">
            <mxPoint x="460" y="330" as="sourcePoint" />
            <mxPoint x="460" y="140" as="targetPoint" />
          </mxGeometry>
        </mxCell>
        <mxCell id="l3O_IUPoLd6Lzl4tDlNp-21" value="" style="endArrow=none;html=1;rounded=0;exitX=1;exitY=0.5;exitDx=0;exitDy=0;" edge="1" parent="1" source="l3O_IUPoLd6Lzl4tDlNp-5">
          <mxGeometry width="50" height="50" relative="1" as="geometry">
            <mxPoint x="420" y="335" as="sourcePoint" />
            <mxPoint x="460" y="330" as="targetPoint" />
          </mxGeometry>
        </mxCell>
        <mxCell id="l3O_IUPoLd6Lzl4tDlNp-22" value="" style="endArrow=classic;html=1;rounded=0;" edge="1" parent="1">
          <mxGeometry width="50" height="50" relative="1" as="geometry">
            <mxPoint x="460" y="230" as="sourcePoint" />
            <mxPoint x="510" y="230" as="targetPoint" />
          </mxGeometry>
        </mxCell>
        <mxCell id="l3O_IUPoLd6Lzl4tDlNp-23" value="" style="endArrow=classic;html=1;rounded=0;fillColor=#f8cecc;strokeColor=#b85450;" edge="1" parent="1">
          <mxGeometry width="50" height="50" relative="1" as="geometry">
            <mxPoint x="510" y="250" as="sourcePoint" />
            <mxPoint x="460" y="250" as="targetPoint" />
          </mxGeometry>
        </mxCell>
        <mxCell id="l3O_IUPoLd6Lzl4tDlNp-24" value="&lt;font style=&quot;font-size: 23px;&quot;&gt;&lt;b&gt;БПР&lt;/b&gt;&lt;/font&gt;" style="rounded=0;whiteSpace=wrap;html=1;" vertex="1" parent="1">
          <mxGeometry x="510" y="210" width="120" height="60" as="geometry" />
        </mxCell>
        <mxCell id="l3O_IUPoLd6Lzl4tDlNp-25" value="&lt;b&gt;4&lt;/b&gt;" style="shape=datastore;whiteSpace=wrap;html=1;" vertex="1" parent="1">
          <mxGeometry x="580" y="140" width="40" height="40" as="geometry" />
        </mxCell>
        <mxCell id="l3O_IUPoLd6Lzl4tDlNp-26" value="&lt;b&gt;3&lt;/b&gt;" style="shape=datastore;whiteSpace=wrap;html=1;" vertex="1" parent="1">
          <mxGeometry x="530" y="140" width="40" height="40" as="geometry" />
        </mxCell>
        <mxCell id="l3O_IUPoLd6Lzl4tDlNp-27" value="&lt;b&gt;6&lt;/b&gt;" style="shape=datastore;whiteSpace=wrap;html=1;" vertex="1" parent="1">
          <mxGeometry x="580" y="300" width="40" height="40" as="geometry" />
        </mxCell>
        <mxCell id="l3O_IUPoLd6Lzl4tDlNp-28" value="&lt;b&gt;5&lt;/b&gt;" style="shape=datastore;whiteSpace=wrap;html=1;" vertex="1" parent="1">
          <mxGeometry x="530" y="300" width="40" height="40" as="geometry" />
        </mxCell>
        <mxCell id="l3O_IUPoLd6Lzl4tDlNp-29" value="" style="endArrow=classic;html=1;rounded=0;exitX=0.5;exitY=1;exitDx=0;exitDy=0;exitPerimeter=0;dashed=1;dashPattern=8 8;" edge="1" parent="1">
          <mxGeometry width="50" height="50" relative="1" as="geometry">
            <mxPoint x="549.71" y="180" as="sourcePoint" />
            <mxPoint x="550" y="210" as="targetPoint" />
            <Array as="points">
              <mxPoint x="549.71" y="200" />
            </Array>
          </mxGeometry>
        </mxCell>
        <mxCell id="l3O_IUPoLd6Lzl4tDlNp-30" value="" style="endArrow=classic;html=1;rounded=0;exitX=0.5;exitY=1;exitDx=0;exitDy=0;exitPerimeter=0;dashed=1;dashPattern=8 8;" edge="1" parent="1">
          <mxGeometry width="50" height="50" relative="1" as="geometry">
            <mxPoint x="599.86" y="180" as="sourcePoint" />
            <mxPoint x="600.15" y="210" as="targetPoint" />
            <Array as="points">
              <mxPoint x="599.86" y="200" />
            </Array>
          </mxGeometry>
        </mxCell>
        <mxCell id="l3O_IUPoLd6Lzl4tDlNp-31" value="" style="endArrow=classic;html=1;rounded=0;exitX=0.5;exitY=0;exitDx=0;exitDy=0;dashed=1;dashPattern=8 8;entryX=0.333;entryY=1;entryDx=0;entryDy=0;entryPerimeter=0;" edge="1" parent="1" source="l3O_IUPoLd6Lzl4tDlNp-28" target="l3O_IUPoLd6Lzl4tDlNp-24">
          <mxGeometry width="50" height="50" relative="1" as="geometry">
            <mxPoint x="609.86" y="190" as="sourcePoint" />
            <mxPoint x="610.15" y="220" as="targetPoint" />
            <Array as="points">
              <mxPoint x="550" y="290" />
            </Array>
          </mxGeometry>
        </mxCell>
        <mxCell id="l3O_IUPoLd6Lzl4tDlNp-32" value="" style="endArrow=classic;html=1;rounded=0;exitX=0.5;exitY=0;exitDx=0;exitDy=0;dashed=1;dashPattern=8 8;entryX=0.333;entryY=1;entryDx=0;entryDy=0;entryPerimeter=0;" edge="1" parent="1">
          <mxGeometry width="50" height="50" relative="1" as="geometry">
            <mxPoint x="599.83" y="300" as="sourcePoint" />
            <mxPoint x="599.83" y="270" as="targetPoint" />
            <Array as="points">
              <mxPoint x="599.83" y="290" />
            </Array>
          </mxGeometry>
        </mxCell>
        <mxCell id="l3O_IUPoLd6Lzl4tDlNp-33" value="&lt;font style=&quot;font-size: 16px;&quot;&gt;&lt;b style=&quot;&quot;&gt;Аналитический отдел&lt;/b&gt;&lt;/font&gt;" style="rounded=0;whiteSpace=wrap;html=1;" vertex="1" parent="1">
          <mxGeometry x="660" y="210" width="150" height="60" as="geometry" />
        </mxCell>
        <mxCell id="l3O_IUPoLd6Lzl4tDlNp-34" value="&lt;font size=&quot;1&quot;&gt;&lt;b&gt;1 этап&lt;/b&gt;&lt;/font&gt;" style="ellipse;whiteSpace=wrap;html=1;" vertex="1" parent="1">
          <mxGeometry x="840" y="220" width="60" height="40" as="geometry" />
        </mxCell>
        <mxCell id="l3O_IUPoLd6Lzl4tDlNp-35" value="&lt;b&gt;Оценка&lt;/b&gt;" style="rhombus;whiteSpace=wrap;html=1;" vertex="1" parent="1">
          <mxGeometry x="920" y="210" width="60" height="60" as="geometry" />
        </mxCell>
        <mxCell id="l3O_IUPoLd6Lzl4tDlNp-36" value="" style="endArrow=classic;html=1;rounded=0;exitX=1;exitY=0.5;exitDx=0;exitDy=0;entryX=0;entryY=0.5;entryDx=0;entryDy=0;" edge="1" parent="1" source="l3O_IUPoLd6Lzl4tDlNp-33" target="l3O_IUPoLd6Lzl4tDlNp-34">
          <mxGeometry width="50" height="50" relative="1" as="geometry">
            <mxPoint x="710" y="320" as="sourcePoint" />
            <mxPoint x="760" y="270" as="targetPoint" />
          </mxGeometry>
        </mxCell>
        <mxCell id="l3O_IUPoLd6Lzl4tDlNp-37" value="" style="endArrow=classic;html=1;rounded=0;exitX=1;exitY=0.5;exitDx=0;exitDy=0;entryX=0;entryY=0.5;entryDx=0;entryDy=0;" edge="1" parent="1" source="l3O_IUPoLd6Lzl4tDlNp-34" target="l3O_IUPoLd6Lzl4tDlNp-35">
          <mxGeometry width="50" height="50" relative="1" as="geometry">
            <mxPoint x="710" y="320" as="sourcePoint" />
            <mxPoint x="760" y="270" as="targetPoint" />
          </mxGeometry>
        </mxCell>
        <mxCell id="l3O_IUPoLd6Lzl4tDlNp-38" value="&lt;font style=&quot;font-size: 9px;&quot;&gt;&lt;b&gt;от 70&amp;nbsp;&lt;/b&gt;&lt;/font&gt;&lt;b style=&quot;font-size: 9px; background-color: transparent; color: light-dark(rgb(0, 0, 0), rgb(255, 255, 255));&quot;&gt;до 99 %&lt;/b&gt;" style="shape=process;whiteSpace=wrap;html=1;backgroundOutline=1;" vertex="1" parent="1">
          <mxGeometry x="910" y="150" width="80" height="30" as="geometry" />
        </mxCell>
        <mxCell id="l3O_IUPoLd6Lzl4tDlNp-39" value="&lt;b style=&quot;font-size: 9px;&quot;&gt;от 0&amp;nbsp;&lt;/b&gt;&lt;b style=&quot;background-color: transparent; color: light-dark(rgb(0, 0, 0), rgb(255, 255, 255)); font-size: 9px;&quot;&gt;до 30 %&lt;/b&gt;" style="shape=process;whiteSpace=wrap;html=1;backgroundOutline=1;" vertex="1" parent="1">
          <mxGeometry x="1010" y="225" width="80" height="30" as="geometry" />
        </mxCell>
        <mxCell id="l3O_IUPoLd6Lzl4tDlNp-41" value="" style="endArrow=classic;html=1;rounded=0;entryX=0.5;entryY=1;entryDx=0;entryDy=0;" edge="1" parent="1" source="l3O_IUPoLd6Lzl4tDlNp-35" target="l3O_IUPoLd6Lzl4tDlNp-38">
          <mxGeometry width="50" height="50" relative="1" as="geometry">
            <mxPoint x="890" y="190" as="sourcePoint" />
            <mxPoint x="940" y="140" as="targetPoint" />
          </mxGeometry>
        </mxCell>
        <mxCell id="l3O_IUPoLd6Lzl4tDlNp-42" value="" style="endArrow=classic;html=1;rounded=0;exitX=1;exitY=0.5;exitDx=0;exitDy=0;entryX=0;entryY=0.5;entryDx=0;entryDy=0;" edge="1" parent="1" source="l3O_IUPoLd6Lzl4tDlNp-35" target="l3O_IUPoLd6Lzl4tDlNp-39">
          <mxGeometry width="50" height="50" relative="1" as="geometry">
            <mxPoint x="890" y="190" as="sourcePoint" />
            <mxPoint x="940" y="140" as="targetPoint" />
          </mxGeometry>
        </mxCell>
        <mxCell id="l3O_IUPoLd6Lzl4tDlNp-43" value="&lt;b style=&quot;font-size: 9px;&quot;&gt;от 0&amp;nbsp;&lt;/b&gt;&lt;b style=&quot;background-color: transparent; color: light-dark(rgb(0, 0, 0), rgb(255, 255, 255)); font-size: 9px;&quot;&gt;до 30 %&lt;/b&gt;" style="shape=process;whiteSpace=wrap;html=1;backgroundOutline=1;" vertex="1" parent="1">
          <mxGeometry x="910" y="301" width="80" height="30" as="geometry" />
        </mxCell>
        <mxCell id="l3O_IUPoLd6Lzl4tDlNp-44" value="" style="endArrow=classic;html=1;rounded=0;exitX=0.5;exitY=1;exitDx=0;exitDy=0;" edge="1" parent="1" source="l3O_IUPoLd6Lzl4tDlNp-35">
          <mxGeometry width="50" height="50" relative="1" as="geometry">
            <mxPoint x="951" y="272" as="sourcePoint" />
            <mxPoint x="950" y="300" as="targetPoint" />
          </mxGeometry>
        </mxCell>
        <mxCell id="l3O_IUPoLd6Lzl4tDlNp-45" value="&lt;font size=&quot;1&quot;&gt;&lt;b&gt;2 этап&lt;/b&gt;&lt;/font&gt;" style="ellipse;whiteSpace=wrap;html=1;" vertex="1" parent="1">
          <mxGeometry x="920" y="350" width="60" height="40" as="geometry" />
        </mxCell>
        <mxCell id="l3O_IUPoLd6Lzl4tDlNp-46" value="&lt;font size=&quot;1&quot;&gt;&lt;b&gt;Ручная оценка&lt;/b&gt;&lt;/font&gt;" style="shape=process;whiteSpace=wrap;html=1;backgroundOutline=1;" vertex="1" parent="1">
          <mxGeometry x="910" y="410" width="80" height="30" as="geometry" />
        </mxCell>
        <mxCell id="l3O_IUPoLd6Lzl4tDlNp-47" value="" style="endArrow=classic;html=1;rounded=0;exitX=0.5;exitY=0;exitDx=0;exitDy=0;entryX=0.67;entryY=0.026;entryDx=0;entryDy=0;entryPerimeter=0;fillColor=#d5e8d4;strokeColor=#82b366;" edge="1" parent="1" source="l3O_IUPoLd6Lzl4tDlNp-38" target="l3O_IUPoLd6Lzl4tDlNp-33">
          <mxGeometry width="50" height="50" relative="1" as="geometry">
            <mxPoint x="680" y="280" as="sourcePoint" />
            <mxPoint x="1000" y="130" as="targetPoint" />
            <Array as="points">
              <mxPoint x="950" y="120" />
              <mxPoint x="760" y="120" />
              <mxPoint x="760" y="160" />
            </Array>
          </mxGeometry>
        </mxCell>
        <mxCell id="l3O_IUPoLd6Lzl4tDlNp-48" value="&lt;b&gt;&lt;i&gt;ОДОБРЕНИЕ&lt;/i&gt;&lt;/b&gt;" style="text;strokeColor=none;align=center;fillColor=none;html=1;verticalAlign=middle;whiteSpace=wrap;rounded=0;" vertex="1" parent="1">
          <mxGeometry x="820" y="120" width="60" height="30" as="geometry" />
        </mxCell>
        <mxCell id="l3O_IUPoLd6Lzl4tDlNp-49" value="" style="endArrow=classic;html=1;rounded=0;exitX=0.5;exitY=0;exitDx=0;exitDy=0;entryX=0.404;entryY=0.031;entryDx=0;entryDy=0;entryPerimeter=0;fillColor=#a20025;strokeColor=#6F0000;" edge="1" parent="1" source="l3O_IUPoLd6Lzl4tDlNp-39" target="l3O_IUPoLd6Lzl4tDlNp-33">
          <mxGeometry width="50" height="50" relative="1" as="geometry">
            <mxPoint x="800" y="120" as="sourcePoint" />
            <mxPoint x="850" y="70" as="targetPoint" />
            <Array as="points">
              <mxPoint x="1050" y="150" />
              <mxPoint x="1050" y="80" />
              <mxPoint x="721" y="80" />
            </Array>
          </mxGeometry>
        </mxCell>
        <mxCell id="l3O_IUPoLd6Lzl4tDlNp-50" value="&lt;b&gt;&lt;i&gt;ОТКАЗ&lt;/i&gt;&lt;/b&gt;" style="text;strokeColor=none;align=center;fillColor=none;html=1;verticalAlign=middle;whiteSpace=wrap;rounded=0;" vertex="1" parent="1">
          <mxGeometry x="860" y="80" width="60" height="30" as="geometry" />
        </mxCell>
        <mxCell id="l3O_IUPoLd6Lzl4tDlNp-51" value="" style="endArrow=classic;html=1;rounded=0;exitX=0.5;exitY=1;exitDx=0;exitDy=0;entryX=0.5;entryY=0;entryDx=0;entryDy=0;" edge="1" parent="1" source="l3O_IUPoLd6Lzl4tDlNp-43" target="l3O_IUPoLd6Lzl4tDlNp-45">
          <mxGeometry width="50" height="50" relative="1" as="geometry">
            <mxPoint x="800" y="290" as="sourcePoint" />
            <mxPoint x="850" y="240" as="targetPoint" />
          </mxGeometry>
        </mxCell>
        <mxCell id="l3O_IUPoLd6Lzl4tDlNp-52" value="" style="endArrow=classic;html=1;rounded=0;exitX=0.5;exitY=1;exitDx=0;exitDy=0;entryX=0.5;entryY=0;entryDx=0;entryDy=0;" edge="1" parent="1" source="l3O_IUPoLd6Lzl4tDlNp-45" target="l3O_IUPoLd6Lzl4tDlNp-46">
          <mxGeometry width="50" height="50" relative="1" as="geometry">
            <mxPoint x="800" y="290" as="sourcePoint" />
            <mxPoint x="850" y="240" as="targetPoint" />
          </mxGeometry>
        </mxCell>
        <mxCell id="l3O_IUPoLd6Lzl4tDlNp-53" value="" style="endArrow=classic;html=1;rounded=0;exitX=0;exitY=0.5;exitDx=0;exitDy=0;entryX=0.5;entryY=1;entryDx=0;entryDy=0;fillColor=#f8cecc;strokeColor=#b85450;" edge="1" parent="1" source="l3O_IUPoLd6Lzl4tDlNp-46" target="l3O_IUPoLd6Lzl4tDlNp-33">
          <mxGeometry width="50" height="50" relative="1" as="geometry">
            <mxPoint x="800" y="290" as="sourcePoint" />
            <mxPoint x="850" y="240" as="targetPoint" />
            <Array as="points">
              <mxPoint x="735" y="425" />
            </Array>
          </mxGeometry>
        </mxCell>
        <mxCell id="l3O_IUPoLd6Lzl4tDlNp-54" value="" style="endArrow=classic;html=1;rounded=0;" edge="1" parent="1">
          <mxGeometry width="50" height="50" relative="1" as="geometry">
            <mxPoint x="630" y="230" as="sourcePoint" />
            <mxPoint x="660" y="230" as="targetPoint" />
          </mxGeometry>
        </mxCell>
        <mxCell id="l3O_IUPoLd6Lzl4tDlNp-55" value="" style="endArrow=classic;html=1;rounded=0;fillColor=#f8cecc;strokeColor=#b85450;" edge="1" parent="1">
          <mxGeometry width="50" height="50" relative="1" as="geometry">
            <mxPoint x="660" y="250" as="sourcePoint" />
            <mxPoint x="630" y="250" as="targetPoint" />
          </mxGeometry>
        </mxCell>
        <mxCell id="l3O_IUPoLd6Lzl4tDlNp-56" value="КЛИЕНТ" style="shape=umlActor;verticalLabelPosition=bottom;verticalAlign=top;html=1;outlineConnect=0;" vertex="1" parent="1">
          <mxGeometry x="70" y="210" width="20" height="40" as="geometry" />
        </mxCell>
      </root>
    </mxGraphModel>
  </diagram>
</mxfile>
